<?xml version="1.0" encoding="utf-8"?>
<!-- Generator: Adobe Illustrator 18.1.1, SVG Export Plug-In . SVG Version: 6.00 Build 0)  -->
<svg version="1.1" id="Capa_1" xmlns="http://www.w3.org/2000/svg" xmlns:xlink="http://www.w3.org/1999/xlink" x="0px" y="0px"
	 viewBox="-35 223.2 799.5 732.4" enable-background="new -35 223.2 799.5 732.4" xml:space="preserve">
<g>
	<path fill="#083248" d="M429,321c0,12.4-10.7,21.3-21.3,21.3H142.8c-12.4,0-21.3-10.7-21.3-21.3c0-12.4,10.7-21.3,21.3-21.3h264.9
		C418.3,297.8,429,308.5,429,321z M405.9,388.5H141c-12.4,0-21.3,10.7-21.3,21.3s10.7,21.3,21.3,21.3h264.9
		c12.4,0,21.3-10.7,21.3-21.3S418.3,388.5,405.9,388.5z M763.2,520.1l-88.9,400c-5.3,19.6-23.1,35.6-42.7,35.6h-88.9H98.3H9.4
		c-24.9,0-44.4-19.6-44.4-44.4V377.8c0-24.9,19.6-44.4,44.4-44.4h21.3v-88.9c0-12.4,10.7-21.3,21.3-21.3h444.4
		c12.4,0,21.3,10.7,21.3,21.3v88.9h21.3c24.9,0,44.4,19.6,44.4,44.4v44.4h44.4c24.9,0,44.4,19.6,44.4,44.4H717
		c14.2,0,26.7,5.3,33.8,16C763.2,493.4,766.8,507.6,763.2,520.1z M32.6,377.8H11.2v533.3h21.3V377.8z M519.7,422.3H541v-44.4h-21.3
		V422.3z M187.2,466.7h266.7c0-24.9,19.6-44.4,44.4-44.4V244.5H53.9v666.7l0,0c0-3.6,90.7-408.9,90.7-408.9
		C148.1,481,165.9,466.7,187.2,466.7z M576.6,834.7l-69.3-56.9c-5.3-5.3-14.2-7.1-21.3-5.3l-8.9-7.1c17.8-24.9,24.9-55.1,21.3-87.1
		c-3.6-35.6-21.3-67.6-48-90.7c-23.1-19.6-53.3-30.2-83.6-30.2c-40.9,0-78.2,17.8-103.1,49.8c-46.2,56.9-37.3,140.4,19.6,188.4
		c23.1,19.6,53.3,30.2,83.6,30.2c32,0,64-12.4,87.1-33.8l8.9,7.1c0,7.1,3.6,14.2,8.9,19.6l69.3,56.9c5.3,3.6,10.7,5.3,16,5.3
		c7.1,0,16-3.6,21.3-10.7C590.8,861.4,589,843.6,576.6,834.7z M423.7,623.2c-16-14.2-37.3-19.6-56.9-19.6c-24.9,0-51.6,10.7-69.3,32
		c-30.2,37.3-24.9,94.2,12.4,124.4c16,14.2,35.6,19.6,56.9,19.6c24.9,0,51.6-10.7,69.3-32C466.3,710.3,461,653.4,423.7,623.2z"/>
</g>
</svg>
